<svg width="1393" height="1166" aria-label="A chart." style="overflow: hidden;"><defs id="_ABSTRACT_RENDERER_ID_1225"><clipPath id="_ABSTRACT_RENDERER_ID_1226"><rect x="266" y="223" width="861" height="721"></rect></clipPath></defs><rect x="0" y="0" width="1393" height="1166" stroke="none" stroke-width="0" fill="#ffffff"></rect><g><text text-anchor="start" x="266" y="192.45" font-family="Arial" font-size="17" font-weight="bold" stroke="none" stroke-width="0" fill="#000000">Mean direction (degrees, math convention) — 2024</text><rect x="266" y="178" width="861" height="17" stroke="none" stroke-width="0" fill-opacity="0" fill="#ffffff"></rect></g><g><rect x="266" y="223" width="861" height="721" stroke="none" stroke-width="0" fill-opacity="0" fill="#ffffff"></rect><g clip-path="url(https://code.earthengine.google.com/?accept_repo=users/s177167/sertAI#_ABSTRACT_RENDERER_ID_1226)"><g><rect x="266" y="943" width="861" height="1" stroke="none" stroke-width="0" fill="#cccccc"></rect><rect x="266" y="883" width="861" height="1" stroke="none" stroke-width="0" fill="#cccccc"></rect><rect x="266" y="823" width="861" height="1" stroke="none" stroke-width="0" fill="#cccccc"></rect><rect x="266" y="763" width="861" height="1" stroke="none" stroke-width="0" fill="#cccccc"></rect><rect x="266" y="703" width="861" height="1" stroke="none" stroke-width="0" fill="#cccccc"></rect><rect x="266" y="643" width="861" height="1" stroke="none" stroke-width="0" fill="#cccccc"></rect><rect x="266" y="583" width="861" height="1" stroke="none" stroke-width="0" fill="#cccccc"></rect><rect x="266" y="523" width="861" height="1" stroke="none" stroke-width="0" fill="#cccccc"></rect><rect x="266" y="463" width="861" height="1" stroke="none" stroke-width="0" fill="#cccccc"></rect><rect x="266" y="403" width="861" height="1" stroke="none" stroke-width="0" fill="#cccccc"></rect><rect x="266" y="343" width="861" height="1" stroke="none" stroke-width="0" fill="#cccccc"></rect><rect x="266" y="283" width="861" height="1" stroke="none" stroke-width="0" fill="#cccccc"></rect><rect x="266" y="223" width="861" height="1" stroke="none" stroke-width="0" fill="#cccccc"></rect><rect x="266" y="913" width="861" height="1" stroke="none" stroke-width="0" fill="#ebebeb"></rect><rect x="266" y="853" width="861" height="1" stroke="none" stroke-width="0" fill="#ebebeb"></rect><rect x="266" y="793" width="861" height="1" stroke="none" stroke-width="0" fill="#ebebeb"></rect><rect x="266" y="733" width="861" height="1" stroke="none" stroke-width="0" fill="#ebebeb"></rect><rect x="266" y="673" width="861" height="1" stroke="none" stroke-width="0" fill="#ebebeb"></rect><rect x="266" y="613" width="861" height="1" stroke="none" stroke-width="0" fill="#ebebeb"></rect><rect x="266" y="553" width="861" height="1" stroke="none" stroke-width="0" fill="#ebebeb"></rect><rect x="266" y="493" width="861" height="1" stroke="none" stroke-width="0" fill="#ebebeb"></rect><rect x="266" y="433" width="861" height="1" stroke="none" stroke-width="0" fill="#ebebeb"></rect><rect x="266" y="373" width="861" height="1" stroke="none" stroke-width="0" fill="#ebebeb"></rect><rect x="266" y="313" width="861" height="1" stroke="none" stroke-width="0" fill="#ebebeb"></rect><rect x="266" y="253" width="861" height="1" stroke="none" stroke-width="0" fill="#ebebeb"></rect></g><g><rect x="266" y="223" width="861" height="1" stroke="none" stroke-width="0" fill="#333333"></rect></g><g><path d="M302.3333333333333,914.7771192786L374,893.130807654L445.6666666666667,914.0457605358L517.3333333333334,833.7555444168L589,775.42617345138L660.6666666666667,743.61537192246L732.3333333333334,777.3962438881799L804,840.031076796L875.6666666666667,859.1719684572L947.3333333333334,898.4521495458L1019,895.8111754644L1090.6666666666667,892.0930071792" stroke="#3366cc" stroke-width="2" fill-opacity="1" fill="none"></path></g></g><g></g><g><g><text text-anchor="middle" x="302.3333333333333" y="969.45" font-family="Arial" font-size="17" stroke="none" stroke-width="0" fill="#222222">2024-01</text></g><g><text text-anchor="middle" x="374" y="991.45" font-family="Arial" font-size="17" stroke="none" stroke-width="0" fill="#222222">2024-02</text></g><g><text text-anchor="middle" x="445.6666666666667" y="969.45" font-family="Arial" font-size="17" stroke="none" stroke-width="0" fill="#222222">2024-03</text></g><g><text text-anchor="middle" x="517.3333333333334" y="991.45" font-family="Arial" font-size="17" stroke="none" stroke-width="0" fill="#222222">2024-04</text></g><g><text text-anchor="middle" x="589" y="969.45" font-family="Arial" font-size="17" stroke="none" stroke-width="0" fill="#222222">2024-05</text></g><g><text text-anchor="middle" x="660.6666666666667" y="991.45" font-family="Arial" font-size="17" stroke="none" stroke-width="0" fill="#222222">2024-06</text></g><g><text text-anchor="middle" x="732.3333333333334" y="969.45" font-family="Arial" font-size="17" stroke="none" stroke-width="0" fill="#222222">2024-07</text></g><g><text text-anchor="middle" x="804" y="991.45" font-family="Arial" font-size="17" stroke="none" stroke-width="0" fill="#222222">2024-08</text></g><g><text text-anchor="middle" x="875.6666666666667" y="969.45" font-family="Arial" font-size="17" stroke="none" stroke-width="0" fill="#222222">2024-09</text></g><g><text text-anchor="middle" x="947.3333333333334" y="991.45" font-family="Arial" font-size="17" stroke="none" stroke-width="0" fill="#222222">2024-10</text></g><g><text text-anchor="middle" x="1019" y="969.45" font-family="Arial" font-size="17" stroke="none" stroke-width="0" fill="#222222">2024-11</text></g><g><text text-anchor="middle" x="1090.6666666666667" y="991.45" font-family="Arial" font-size="17" stroke="none" stroke-width="0" fill="#222222">2024-12</text></g><g><text text-anchor="end" x="249" y="949.45" font-family="Arial" font-size="17" stroke="none" stroke-width="0" fill="#444444">-120</text></g><g><text text-anchor="end" x="249" y="889.45" font-family="Arial" font-size="17" stroke="none" stroke-width="0" fill="#444444">-110</text></g><g><text text-anchor="end" x="249" y="829.45" font-family="Arial" font-size="17" stroke="none" stroke-width="0" fill="#444444">-100</text></g><g><text text-anchor="end" x="249" y="769.45" font-family="Arial" font-size="17" stroke="none" stroke-width="0" fill="#444444">-90</text></g><g><text text-anchor="end" x="249" y="709.45" font-family="Arial" font-size="17" stroke="none" stroke-width="0" fill="#444444">-80</text></g><g><text text-anchor="end" x="249" y="649.45" font-family="Arial" font-size="17" stroke="none" stroke-width="0" fill="#444444">-70</text></g><g><text text-anchor="end" x="249" y="589.45" font-family="Arial" font-size="17" stroke="none" stroke-width="0" fill="#444444">-60</text></g><g><text text-anchor="end" x="249" y="529.45" font-family="Arial" font-size="17" stroke="none" stroke-width="0" fill="#444444">-50</text></g><g><text text-anchor="end" x="249" y="469.45" font-family="Arial" font-size="17" stroke="none" stroke-width="0" fill="#444444">-40</text></g><g><text text-anchor="end" x="249" y="409.45" font-family="Arial" font-size="17" stroke="none" stroke-width="0" fill="#444444">-30</text></g><g><text text-anchor="end" x="249" y="349.45" font-family="Arial" font-size="17" stroke="none" stroke-width="0" fill="#444444">-20</text></g><g><text text-anchor="end" x="249" y="289.45" font-family="Arial" font-size="17" stroke="none" stroke-width="0" fill="#444444">-10</text></g><g><text text-anchor="end" x="249" y="229.45" font-family="Arial" font-size="17" stroke="none" stroke-width="0" fill="#444444">0</text></g></g></g><g><g><text text-anchor="middle" x="696.5" y="1085.95" font-family="Arial" font-size="17" font-style="italic" stroke="none" stroke-width="0" fill="#222222">Month</text><rect x="266" y="1071.5" width="861" height="17" stroke="none" stroke-width="0" fill-opacity="0" fill="#ffffff"></rect></g><g><text text-anchor="middle" x="113.45" y="583.5" font-family="Arial" font-size="17" font-style="italic" transform="rotate(-90 113.45 583.5)" stroke="none" stroke-width="0" fill="#222222">degrees</text><path d="M98.99999999999999,944L99.00000000000003,223L116.00000000000003,223L115.99999999999999,944Z" stroke="none" stroke-width="0" fill-opacity="0" fill="#ffffff"></path></g></g><g></g></svg>