<svg width="1393" height="1166" aria-label="A chart." style="overflow: hidden;"><defs id="_ABSTRACT_RENDERER_ID_1217"><clipPath id="_ABSTRACT_RENDERER_ID_1218"><rect x="266" y="223" width="861" height="721"></rect></clipPath></defs><rect x="0" y="0" width="1393" height="1166" stroke="none" stroke-width="0" fill="#ffffff"></rect><g><text text-anchor="start" x="266" y="192.45" font-family="Arial" font-size="17" font-weight="bold" stroke="none" stroke-width="0" fill="#000000">Monthly rainfall in AOI (mm) — 2024</text><rect x="266" y="178" width="861" height="17" stroke="none" stroke-width="0" fill-opacity="0" fill="#ffffff"></rect></g><g><rect x="266" y="223" width="861" height="721" stroke="none" stroke-width="0" fill-opacity="0" fill="#ffffff"></rect><g clip-path="url(https://code.earthengine.google.com/?accept_repo=users/s177167/sertAI#_ABSTRACT_RENDERER_ID_1218)"><g><rect x="266" y="943" width="861" height="1" stroke="none" stroke-width="0" fill="#cccccc"></rect><rect x="266" y="888" width="861" height="1" stroke="none" stroke-width="0" fill="#cccccc"></rect><rect x="266" y="832" width="861" height="1" stroke="none" stroke-width="0" fill="#cccccc"></rect><rect x="266" y="777" width="861" height="1" stroke="none" stroke-width="0" fill="#cccccc"></rect><rect x="266" y="721" width="861" height="1" stroke="none" stroke-width="0" fill="#cccccc"></rect><rect x="266" y="666" width="861" height="1" stroke="none" stroke-width="0" fill="#cccccc"></rect><rect x="266" y="611" width="861" height="1" stroke="none" stroke-width="0" fill="#cccccc"></rect><rect x="266" y="555" width="861" height="1" stroke="none" stroke-width="0" fill="#cccccc"></rect><rect x="266" y="500" width="861" height="1" stroke="none" stroke-width="0" fill="#cccccc"></rect><rect x="266" y="445" width="861" height="1" stroke="none" stroke-width="0" fill="#cccccc"></rect><rect x="266" y="389" width="861" height="1" stroke="none" stroke-width="0" fill="#cccccc"></rect><rect x="266" y="334" width="861" height="1" stroke="none" stroke-width="0" fill="#cccccc"></rect><rect x="266" y="278" width="861" height="1" stroke="none" stroke-width="0" fill="#cccccc"></rect><rect x="266" y="223" width="861" height="1" stroke="none" stroke-width="0" fill="#cccccc"></rect><rect x="266" y="915" width="861" height="1" stroke="none" stroke-width="0" fill="#ebebeb"></rect><rect x="266" y="860" width="861" height="1" stroke="none" stroke-width="0" fill="#ebebeb"></rect><rect x="266" y="805" width="861" height="1" stroke="none" stroke-width="0" fill="#ebebeb"></rect><rect x="266" y="749" width="861" height="1" stroke="none" stroke-width="0" fill="#ebebeb"></rect><rect x="266" y="694" width="861" height="1" stroke="none" stroke-width="0" fill="#ebebeb"></rect><rect x="266" y="638" width="861" height="1" stroke="none" stroke-width="0" fill="#ebebeb"></rect><rect x="266" y="583" width="861" height="1" stroke="none" stroke-width="0" fill="#ebebeb"></rect><rect x="266" y="528" width="861" height="1" stroke="none" stroke-width="0" fill="#ebebeb"></rect><rect x="266" y="472" width="861" height="1" stroke="none" stroke-width="0" fill="#ebebeb"></rect><rect x="266" y="417" width="861" height="1" stroke="none" stroke-width="0" fill="#ebebeb"></rect><rect x="266" y="361" width="861" height="1" stroke="none" stroke-width="0" fill="#ebebeb"></rect><rect x="266" y="306" width="861" height="1" stroke="none" stroke-width="0" fill="#ebebeb"></rect><rect x="266" y="251" width="861" height="1" stroke="none" stroke-width="0" fill="#ebebeb"></rect></g><g><rect x="266" y="943" width="861" height="1" stroke="none" stroke-width="0" fill="#333333"></rect></g><g><path d="M302.3333333333333,735.3356587547078L374,275.24627178982155L445.6666666666667,356.71960519602465L517.3333333333334,294.6647445907938L589,712.98328022112L660.6666666666667,741.8173388432492L732.3333333333334,897.7241050502437L804,938.2809290405509L875.6666666666667,940.3222894090077L947.3333333333334,941.1434021600721L1019,940.9722850974465L1090.6666666666667,854.1847761968197" stroke="#3366cc" stroke-width="2" fill-opacity="1" fill="none"></path></g></g><g></g><g><g><text text-anchor="middle" x="302.3333333333333" y="969.45" font-family="Arial" font-size="17" stroke="none" stroke-width="0" fill="#222222">2024-01</text></g><g><text text-anchor="middle" x="374" y="991.45" font-family="Arial" font-size="17" stroke="none" stroke-width="0" fill="#222222">2024-02</text></g><g><text text-anchor="middle" x="445.6666666666667" y="969.45" font-family="Arial" font-size="17" stroke="none" stroke-width="0" fill="#222222">2024-03</text></g><g><text text-anchor="middle" x="517.3333333333334" y="991.45" font-family="Arial" font-size="17" stroke="none" stroke-width="0" fill="#222222">2024-04</text></g><g><text text-anchor="middle" x="589" y="969.45" font-family="Arial" font-size="17" stroke="none" stroke-width="0" fill="#222222">2024-05</text></g><g><text text-anchor="middle" x="660.6666666666667" y="991.45" font-family="Arial" font-size="17" stroke="none" stroke-width="0" fill="#222222">2024-06</text></g><g><text text-anchor="middle" x="732.3333333333334" y="969.45" font-family="Arial" font-size="17" stroke="none" stroke-width="0" fill="#222222">2024-07</text></g><g><text text-anchor="middle" x="804" y="991.45" font-family="Arial" font-size="17" stroke="none" stroke-width="0" fill="#222222">2024-08</text></g><g><text text-anchor="middle" x="875.6666666666667" y="969.45" font-family="Arial" font-size="17" stroke="none" stroke-width="0" fill="#222222">2024-09</text></g><g><text text-anchor="middle" x="947.3333333333334" y="991.45" font-family="Arial" font-size="17" stroke="none" stroke-width="0" fill="#222222">2024-10</text></g><g><text text-anchor="middle" x="1019" y="969.45" font-family="Arial" font-size="17" stroke="none" stroke-width="0" fill="#222222">2024-11</text></g><g><text text-anchor="middle" x="1090.6666666666667" y="991.45" font-family="Arial" font-size="17" stroke="none" stroke-width="0" fill="#222222">2024-12</text></g><g><text text-anchor="end" x="249" y="949.45" font-family="Arial" font-size="17" stroke="none" stroke-width="0" fill="#444444">0.00</text></g><g><text text-anchor="end" x="249" y="894.0654000000001" font-family="Arial" font-size="17" stroke="none" stroke-width="0" fill="#444444">0.05</text></g><g><text text-anchor="end" x="249" y="838.6808000000001" font-family="Arial" font-size="17" stroke="none" stroke-width="0" fill="#444444">0.10</text></g><g><text text-anchor="end" x="249" y="783.2962" font-family="Arial" font-size="17" stroke="none" stroke-width="0" fill="#444444">0.15</text></g><g><text text-anchor="end" x="249" y="727.9115" font-family="Arial" font-size="17" stroke="none" stroke-width="0" fill="#444444">0.20</text></g><g><text text-anchor="end" x="249" y="672.5269000000001" font-family="Arial" font-size="17" stroke="none" stroke-width="0" fill="#444444">0.25</text></g><g><text text-anchor="end" x="249" y="617.1423000000001" font-family="Arial" font-size="17" stroke="none" stroke-width="0" fill="#444444">0.30</text></g><g><text text-anchor="end" x="249" y="561.7577" font-family="Arial" font-size="17" stroke="none" stroke-width="0" fill="#444444">0.35</text></g><g><text text-anchor="end" x="249" y="506.37309999999997" font-family="Arial" font-size="17" stroke="none" stroke-width="0" fill="#444444">0.40</text></g><g><text text-anchor="end" x="249" y="450.9885" font-family="Arial" font-size="17" stroke="none" stroke-width="0" fill="#444444">0.45</text></g><g><text text-anchor="end" x="249" y="395.6038" font-family="Arial" font-size="17" stroke="none" stroke-width="0" fill="#444444">0.50</text></g><g><text text-anchor="end" x="249" y="340.2192" font-family="Arial" font-size="17" stroke="none" stroke-width="0" fill="#444444">0.55</text></g><g><text text-anchor="end" x="249" y="284.83459999999997" font-family="Arial" font-size="17" stroke="none" stroke-width="0" fill="#444444">0.60</text></g><g><text text-anchor="end" x="249" y="229.45" font-family="Arial" font-size="17" stroke="none" stroke-width="0" fill="#444444">0.65</text></g></g></g><g><g><text text-anchor="middle" x="696.5" y="1085.95" font-family="Arial" font-size="17" font-style="italic" stroke="none" stroke-width="0" fill="#222222">Month</text><rect x="266" y="1071.5" width="861" height="17" stroke="none" stroke-width="0" fill-opacity="0" fill="#ffffff"></rect></g><g><text text-anchor="middle" x="113.95" y="583.5" font-family="Arial" font-size="17" font-style="italic" transform="rotate(-90 113.95 583.5)" stroke="none" stroke-width="0" fill="#222222">mm/month</text><path d="M99.49999999999999,944L99.50000000000003,223L116.50000000000003,223L116.49999999999999,944Z" stroke="none" stroke-width="0" fill-opacity="0" fill="#ffffff"></path></g></g><g></g></svg>