<svg width="1393" height="1166" aria-label="A chart." style="overflow: hidden;"><defs id="_ABSTRACT_RENDERER_ID_1221"><clipPath id="_ABSTRACT_RENDERER_ID_1222"><rect x="266" y="223" width="861" height="721"></rect></clipPath></defs><rect x="0" y="0" width="1393" height="1166" stroke="none" stroke-width="0" fill="#ffffff"></rect><g><text text-anchor="start" x="266" y="192.45" font-family="Arial" font-size="17" font-weight="bold" stroke="none" stroke-width="0" fill="#000000">10 m Wind (monthly mean) — 2024</text><rect x="266" y="178" width="861" height="17" stroke="none" stroke-width="0" fill-opacity="0" fill="#ffffff"></rect></g><g><rect x="266" y="223" width="861" height="721" stroke="none" stroke-width="0" fill-opacity="0" fill="#ffffff"></rect><g clip-path="url(https://code.earthengine.google.com/?accept_repo=users/s177167/sertAI#_ABSTRACT_RENDERER_ID_1222)"><g><rect x="266" y="943" width="861" height="1" stroke="none" stroke-width="0" fill="#cccccc"></rect><rect x="266" y="878" width="861" height="1" stroke="none" stroke-width="0" fill="#cccccc"></rect><rect x="266" y="812" width="861" height="1" stroke="none" stroke-width="0" fill="#cccccc"></rect><rect x="266" y="747" width="861" height="1" stroke="none" stroke-width="0" fill="#cccccc"></rect><rect x="266" y="681" width="861" height="1" stroke="none" stroke-width="0" fill="#cccccc"></rect><rect x="266" y="616" width="861" height="1" stroke="none" stroke-width="0" fill="#cccccc"></rect><rect x="266" y="550" width="861" height="1" stroke="none" stroke-width="0" fill="#cccccc"></rect><rect x="266" y="485" width="861" height="1" stroke="none" stroke-width="0" fill="#cccccc"></rect><rect x="266" y="419" width="861" height="1" stroke="none" stroke-width="0" fill="#cccccc"></rect><rect x="266" y="354" width="861" height="1" stroke="none" stroke-width="0" fill="#cccccc"></rect><rect x="266" y="288" width="861" height="1" stroke="none" stroke-width="0" fill="#cccccc"></rect><rect x="266" y="223" width="861" height="1" stroke="none" stroke-width="0" fill="#cccccc"></rect><rect x="266" y="910" width="861" height="1" stroke="none" stroke-width="0" fill="#ebebeb"></rect><rect x="266" y="845" width="861" height="1" stroke="none" stroke-width="0" fill="#ebebeb"></rect><rect x="266" y="779" width="861" height="1" stroke="none" stroke-width="0" fill="#ebebeb"></rect><rect x="266" y="714" width="861" height="1" stroke="none" stroke-width="0" fill="#ebebeb"></rect><rect x="266" y="648" width="861" height="1" stroke="none" stroke-width="0" fill="#ebebeb"></rect><rect x="266" y="583" width="861" height="1" stroke="none" stroke-width="0" fill="#ebebeb"></rect><rect x="266" y="518" width="861" height="1" stroke="none" stroke-width="0" fill="#ebebeb"></rect><rect x="266" y="452" width="861" height="1" stroke="none" stroke-width="0" fill="#ebebeb"></rect><rect x="266" y="387" width="861" height="1" stroke="none" stroke-width="0" fill="#ebebeb"></rect><rect x="266" y="321" width="861" height="1" stroke="none" stroke-width="0" fill="#ebebeb"></rect><rect x="266" y="256" width="861" height="1" stroke="none" stroke-width="0" fill="#ebebeb"></rect></g><g><rect x="266" y="943" width="861" height="1" stroke="none" stroke-width="0" fill="#333333"></rect></g><g><path d="M302.3333333333333,458.5463399033891L374,584.9130210609164L445.6666666666667,633.2229861898472L517.3333333333334,667.9497021257018L589,519.1280978306618L660.6666666666667,486.44286821406547L732.3333333333334,450.8157334827491L804,368.26808095370177L875.6666666666667,229.22013647633457L947.3333333333334,237.18390013762905L1019,250.1160601970181L1090.6666666666667,301.65650658912" stroke="#3366cc" stroke-width="2" fill-opacity="1" fill="none"></path></g></g><g></g><g><g><text text-anchor="middle" x="302.3333333333333" y="969.45" font-family="Arial" font-size="17" stroke="none" stroke-width="0" fill="#222222">2024-01</text></g><g><text text-anchor="middle" x="374" y="991.45" font-family="Arial" font-size="17" stroke="none" stroke-width="0" fill="#222222">2024-02</text></g><g><text text-anchor="middle" x="445.6666666666667" y="969.45" font-family="Arial" font-size="17" stroke="none" stroke-width="0" fill="#222222">2024-03</text></g><g><text text-anchor="middle" x="517.3333333333334" y="991.45" font-family="Arial" font-size="17" stroke="none" stroke-width="0" fill="#222222">2024-04</text></g><g><text text-anchor="middle" x="589" y="969.45" font-family="Arial" font-size="17" stroke="none" stroke-width="0" fill="#222222">2024-05</text></g><g><text text-anchor="middle" x="660.6666666666667" y="991.45" font-family="Arial" font-size="17" stroke="none" stroke-width="0" fill="#222222">2024-06</text></g><g><text text-anchor="middle" x="732.3333333333334" y="969.45" font-family="Arial" font-size="17" stroke="none" stroke-width="0" fill="#222222">2024-07</text></g><g><text text-anchor="middle" x="804" y="991.45" font-family="Arial" font-size="17" stroke="none" stroke-width="0" fill="#222222">2024-08</text></g><g><text text-anchor="middle" x="875.6666666666667" y="969.45" font-family="Arial" font-size="17" stroke="none" stroke-width="0" fill="#222222">2024-09</text></g><g><text text-anchor="middle" x="947.3333333333334" y="991.45" font-family="Arial" font-size="17" stroke="none" stroke-width="0" fill="#222222">2024-10</text></g><g><text text-anchor="middle" x="1019" y="969.45" font-family="Arial" font-size="17" stroke="none" stroke-width="0" fill="#222222">2024-11</text></g><g><text text-anchor="middle" x="1090.6666666666667" y="991.45" font-family="Arial" font-size="17" stroke="none" stroke-width="0" fill="#222222">2024-12</text></g><g><text text-anchor="end" x="249" y="949.45" font-family="Arial" font-size="17" stroke="none" stroke-width="0" fill="#444444">0.0</text></g><g><text text-anchor="end" x="249" y="883.9955" font-family="Arial" font-size="17" stroke="none" stroke-width="0" fill="#444444">0.5</text></g><g><text text-anchor="end" x="249" y="818.5409000000001" font-family="Arial" font-size="17" stroke="none" stroke-width="0" fill="#444444">1.0</text></g><g><text text-anchor="end" x="249" y="753.0864" font-family="Arial" font-size="17" stroke="none" stroke-width="0" fill="#444444">1.5</text></g><g><text text-anchor="end" x="249" y="687.6318" font-family="Arial" font-size="17" stroke="none" stroke-width="0" fill="#444444">2.0</text></g><g><text text-anchor="end" x="249" y="622.1773000000001" font-family="Arial" font-size="17" stroke="none" stroke-width="0" fill="#444444">2.5</text></g><g><text text-anchor="end" x="249" y="556.7227" font-family="Arial" font-size="17" stroke="none" stroke-width="0" fill="#444444">3.0</text></g><g><text text-anchor="end" x="249" y="491.2682" font-family="Arial" font-size="17" stroke="none" stroke-width="0" fill="#444444">3.5</text></g><g><text text-anchor="end" x="249" y="425.8136" font-family="Arial" font-size="17" stroke="none" stroke-width="0" fill="#444444">4.0</text></g><g><text text-anchor="end" x="249" y="360.3591" font-family="Arial" font-size="17" stroke="none" stroke-width="0" fill="#444444">4.5</text></g><g><text text-anchor="end" x="249" y="294.9045" font-family="Arial" font-size="17" stroke="none" stroke-width="0" fill="#444444">5.0</text></g><g><text text-anchor="end" x="249" y="229.45" font-family="Arial" font-size="17" stroke="none" stroke-width="0" fill="#444444">5.5</text></g></g></g><g><g><text text-anchor="middle" x="696.5" y="1085.95" font-family="Arial" font-size="17" font-style="italic" stroke="none" stroke-width="0" fill="#222222">Month</text><rect x="266" y="1071.5" width="861" height="17" stroke="none" stroke-width="0" fill-opacity="0" fill="#ffffff"></rect></g><g><text text-anchor="middle" x="118.45" y="583.5" font-family="Arial" font-size="17" font-style="italic" transform="rotate(-90 118.45 583.5)" stroke="none" stroke-width="0" fill="#222222">m/s</text><path d="M103.99999999999999,944L104.00000000000003,223L121.00000000000003,223L120.99999999999999,944Z" stroke="none" stroke-width="0" fill-opacity="0" fill="#ffffff"></path></g></g><g></g></svg>